<svg width="776" height="212" viewBox="0 0 776 212" fill="none" xmlns="http://www.w3.org/2000/svg">
<path d="M306.536 60.3636C313.676 59.9687 321.802 60.3212 329.095 60.3962C350.092 60.6116 381.861 55.7908 383.619 85.6098C384.029 92.5225 383.938 99.746 383.85 106.744C383.725 116.525 384.442 126.741 382.918 136.409C379.554 154.306 363.716 156.35 349.146 157.636C341.228 157.786 332.707 157.794 324.603 157.735C309.939 157.487 291.61 159.561 279.559 149.307C269.204 139.913 271.829 122.517 271.681 109.857C271.562 99.7248 270.929 86.6648 273.973 77.2418C278.654 62.7497 293.441 61.0942 306.536 60.3636ZM296.356 82.7599C295.257 85.1358 294.429 87.2857 294.088 89.9137C293.3 95.9716 293.131 127.243 294.86 132.006C295.704 134.33 297.153 135.699 299.388 136.731C306.919 140.207 336.081 138.787 345.636 138.791C354.26 138.206 361.704 137.243 362.103 126.821C362.553 115.035 362.461 102.633 362.209 90.8802C362.048 83.4235 357.913 79.6113 350.752 79.341C338.402 78.875 323.993 78.2659 311.704 78.917C304.89 79.1638 302.219 79.0692 296.356 82.7599Z" fill="#FDFDFE"/>
<path d="M409.592 60.7622C421.875 60.077 436.784 60.7369 449.45 60.5574C463.268 60.5207 476.654 60.1387 490.461 61.2006C504.298 61.9112 513.842 70.0649 515.24 84.0659C515.865 90.3044 515.922 98.48 515.141 104.778C513.05 121.648 501.41 124.544 487.058 126.094C489.025 128.804 493.757 133.297 496.239 135.791L508.818 148.688C510.686 150.606 514.599 154.363 515.721 156.638L515.467 157.002C513.584 157.37 511.171 157.24 509.215 157.209C503.888 157.236 498.603 157.451 493.276 157.332C488.597 157.226 486.687 154.348 483.728 151.196C476.264 143.245 468.986 135.123 461.802 126.923C459.533 127.118 454.433 126.933 451.932 126.921C444.767 126.829 437.603 126.853 430.442 126.992C430.321 131.721 430.999 153.978 429.741 156.63C427.653 157.711 412.589 157.441 409.645 157.203C409.103 153.544 409.312 146.353 409.323 142.377L409.387 116.646L409.315 80.9499C409.311 75.344 409.065 66.2231 409.592 60.7622ZM430.362 108.43C441.035 108.408 451.709 108.449 462.386 108.553C469.33 108.613 484.577 109.695 490.302 105.998C494.852 101.096 493.988 88.4222 491.442 82.6028C486.619 78.5248 479.049 78.6013 472.968 78.7394C458.987 79.0567 444.396 78.1973 430.487 78.8311L430.362 108.43Z" fill="#FDFDFE"/>
<path d="M48.3334 60.629C57.9173 60.4522 67.5038 60.4791 77.0865 60.71C79.5079 63.4209 82.3594 69.9661 84.1905 73.5519C88.8698 82.6687 93.4622 91.8293 97.9667 101.034C106.856 118.882 117.895 139.255 125.904 157.186C121.187 157.142 106.728 158.225 103.605 156.662C100.647 155.181 91.9645 136.297 90.804 132.845C86.7404 132.585 81.3288 132.754 77.1679 132.768C63.397 132.675 48.7638 132.435 35.0422 132.986C32.8994 136.131 30.1445 142.636 28.4783 146.274C26.76 150.012 24.8823 153.674 22.8502 157.251C16.8456 157.761 5.78074 157.709 0 156.757C0.443536 155.445 2.72532 150.819 3.42228 149.328C7.44116 140.73 11.9958 132.313 16.233 123.801L34.6782 87.0237C37.2637 81.7658 45.5532 63.8135 48.3334 60.629ZM43.6519 114.942C50.2536 114.648 57.2053 114.734 63.8419 114.725C69.8555 114.672 76.0593 114.548 82.0529 114.724C78.1076 107.384 74.3028 99.9694 70.6417 92.4839C69.2159 89.606 64.7478 79.0465 62.0206 78.066C60.6069 80.1625 59.3794 82.4786 58.2973 84.7633C53.5711 94.739 48.0314 104.857 43.6519 114.942Z" fill="#FDFDFE"/>
<path d="M156.936 60.3731C158.598 60.2614 160.58 60.52 162.264 60.6869C168.049 65.9127 172.618 71.0692 177.959 76.61L208.355 108.761C212.449 113.147 221.562 123.357 225.844 127.008C224.5 113.224 226.104 97.3637 225.766 83.3524C225.595 76.2591 225.652 67.7359 226.276 60.7138C232.421 60.2322 239.971 60.537 246.254 60.6615C246.908 73.8998 246.534 90.5024 246.488 103.981C246.52 121.791 246.46 139.602 246.307 157.411C242.033 157.376 237.76 157.396 233.487 157.468C231.555 157.497 228.264 157.721 226.795 156.616C221.113 152.345 215.516 145.555 210.67 140.432L183.509 112.175C177.936 106.308 169.186 96.5902 163.397 91.6283C163.746 95.2774 163.6 100.508 163.603 104.323L163.62 125.654C163.623 132.512 164.065 151.344 163.331 157.319C160.641 157.597 144.66 157.597 142.701 156.755C141.741 153.39 142.008 128.496 142.087 123.607C142.417 103.004 141.624 81.196 142.547 60.7164C147.08 60.3583 152.341 60.4223 156.936 60.3731Z" fill="#FDFDFE"/>
<path d="M680.054 101.935C681.077 103.819 679.921 103.608 681.395 105.395C682.536 106.698 684.267 108.799 685.498 109.906C690.996 114.686 734.598 162.642 734.833 165.243C733.715 166.724 717.556 166.187 714.472 166.178C711.198 166.372 699.4 167.153 697.657 165.619C685.688 155.079 670.245 134.952 658.105 125.341C655.904 126.662 651.486 130.082 649.217 131.707C648.527 131.214 647.754 130.745 647.034 130.291C651.263 127.523 656.192 121.734 660.17 118.31C666.729 112.667 673.336 107.353 680.054 101.935Z" fill="#AA4AF9"/>
<path d="M679.08 104.417C680.255 105.651 684.267 109.899 685.286 110.61L685.499 109.906C690.996 114.686 734.598 162.642 734.833 165.243C733.715 166.724 717.556 166.187 714.472 166.178C716.893 164.701 717.427 166.35 718.81 165.207C717.029 160.82 691.288 135.116 687.192 130.08C685.893 128.484 681.335 123.227 679.649 121.248C676.83 117.947 673.071 115.091 670.324 111.21C673.749 107.73 674.784 106.801 679.08 104.417Z" fill="#6F3BF8"/>
<path d="M540.981 60.7157C547.596 60.3996 554.981 60.5045 561.615 60.5079C562.532 64.7645 561.998 83.8847 562.009 89.7132L561.945 131.002C561.941 134.813 562.282 155.167 561.244 157.21C560.626 157.289 560.016 157.26 559.395 157.245C553.067 157.089 546.744 157.554 540.413 157.302C539.886 152.016 540.022 145.713 540.015 140.35C539.988 130.842 540.041 121.334 540.17 111.827C540.197 106.715 539.537 62.8198 540.981 60.7157Z" fill="#FDFDFE"/>
<path d="M586.985 40.2013C587.277 39.686 587.966 39.3279 588.493 38.9838C590.122 40.4254 593.858 43.6837 595.673 44.7763C599.549 47.4395 606.759 53.9199 610.961 57.2866L640.824 81.1801C642.518 82.5483 648.429 86.9003 649.383 88.1848L648.974 88.5706C645.746 91.6321 643.56 93.8036 639.847 96.2488C635.876 99.4825 631.837 102.634 627.738 105.7C618.235 93.6385 608.593 81.6893 598.814 69.8544C596.775 67.3486 588.429 57.6803 587.197 55.5716C587.049 52.8633 590.596 49.0962 592.259 46.7354C590.368 44.1744 589.023 43.6932 586.985 40.2013Z" fill="#0CCBFA"/>
<path d="M586.985 40.2013C587.277 39.686 587.966 39.3279 588.493 38.9838C590.122 40.4254 593.858 43.6837 595.673 44.7763C599.549 47.4395 606.759 53.9199 610.961 57.2866L640.824 81.1801C642.518 82.5483 648.429 86.9003 649.383 88.1848L648.974 88.5706C645.746 91.6321 643.56 93.8036 639.847 96.2488C636.971 93.6854 631.773 86.7534 629.348 84.5861C624.479 80.2295 597.283 48.2179 593.172 47.8094C591.266 49.1416 588.459 53.5183 587.197 55.5716C587.049 52.8633 590.596 49.0962 592.259 46.7354C590.368 44.1744 589.023 43.6932 586.985 40.2013Z" fill="#3993FB"/>
<path d="M630.712 109.147C633.402 111.531 638.82 118.502 641.874 121.79C640.601 123.435 592.846 161.864 590.315 162.858C579.332 170.701 568.651 180.295 557.781 188.367C555.568 190.011 548.536 196.068 546.717 197.155L544.459 196.901C551.609 188.626 561.058 180.103 568.639 171.982C573.171 167.132 579.082 160.013 583.844 156.066C584.996 153.664 627.473 111.253 630.712 109.147Z" fill="#3993FB"/>
<path d="M583.844 156.066C583.094 159.756 568.109 169.16 575.596 172.025C579.851 171.969 585.985 163 590.315 162.858C579.332 170.7 568.651 180.295 557.781 188.367C555.568 190.011 548.536 196.068 546.717 197.155L544.459 196.901C551.609 188.625 561.058 180.103 568.639 171.982C573.171 167.132 579.082 160.013 583.844 156.066Z" fill="#6F3BF8"/>
<path d="M657.427 82.0454L658.306 81.9099C659.314 82.3385 670.574 95.258 671.158 96.723C671.173 96.7624 671.188 96.8018 671.203 96.8412C669.063 98.9979 665.474 102.746 663 104.243C659.401 107.279 656.059 110.201 652.736 113.561C649.641 116.69 645.462 119.194 641.874 121.79C638.82 118.502 633.402 111.53 630.712 109.147C629.996 108.48 628.439 106.534 627.738 105.7C631.837 102.634 635.876 99.4824 639.847 96.2487C643.56 93.8035 645.746 91.632 648.974 88.5705L649.383 88.1847C652.369 86.1242 654.612 84.349 657.427 82.0454Z" fill="#FDFDFE"/>
<path d="M657.427 82.0454L658.306 81.9099C659.314 82.3385 670.574 95.258 671.158 96.723C671.173 96.7624 671.188 96.8018 671.203 96.8412C669.063 98.9979 665.474 102.746 663 104.243C662.33 103.03 654.339 95.462 652.774 93.4908C651.808 92.2797 649.963 89.8463 648.974 88.5705L649.383 88.1847C652.369 86.1242 654.612 84.349 657.427 82.0454Z" fill="#D9B3FB"/>
<path d="M659.34 81.109C662.985 78.7997 666.865 77.0454 670.733 74.5847L691.212 61.6417C695.952 58.6067 701.681 54.7328 706.542 52.0302L706.708 52.6843L706.197 53.2359C707.8 54.9539 711.028 59.8106 712.164 60.2217C704.84 66.9141 697.475 73.1416 690.288 80.0497C684.332 85.773 677.065 90.6929 671.203 96.8413C671.188 96.8019 671.173 96.7625 671.158 96.7232C670.574 95.2581 659.314 82.3386 658.306 81.91L659.34 81.109Z" fill="#D46FFA"/>
<path d="M706.542 52.0302C707.773 50.8528 713.324 47.4642 715.116 46.3289L733.897 34.4259C739.652 30.7207 745.305 26.8055 751.03 23.0651C753.974 21.143 758.062 18.1736 761.127 16.8046C751.125 26.7622 739.289 36.8723 728.559 46.065C722.974 50.8521 718.215 55.6577 712.164 60.2217C711.028 59.8106 707.8 54.9539 706.197 53.2359L706.708 52.6844L706.542 52.0302Z" fill="#AA4AF9"/>
<path d="M639.358 62.5934C644.424 67.7234 653.911 76.7576 659.34 81.1089L658.306 81.91L657.427 82.0455C654.354 81.3561 641.196 65.963 639.358 62.5934Z" fill="#786FE3" fill-opacity="0.988235"/>
<path d="M693.705 91.3171L694.527 92.2556C690.534 96.8545 684.885 100.387 681.395 105.395C679.921 103.608 681.077 103.819 680.054 101.935C684.35 98.6118 689.052 94.1095 693.705 91.3171Z" fill="#6F3BF8" fill-opacity="0.988235"/>
<path d="M649.217 131.707C648.224 132.609 627.442 148.978 627.113 149.091C627.215 148.385 645.079 131.894 647.034 130.291C647.754 130.745 648.527 131.214 649.217 131.707Z" fill="#3936BA" fill-opacity="0.984314"/>
<path d="M580.965 31.9407C583.507 34.6298 586.151 36.3785 588.493 38.9838C587.966 39.3279 587.277 39.686 586.985 40.2013C584.06 37.0251 582.787 35.9482 580.965 31.9407Z" fill="#3E84D4" fill-opacity="0.976471"/>
<path d="M693.705 91.3172C694.952 90.2928 699.949 85.9714 701.135 85.5913C699.313 88.1592 697.081 90.4105 694.527 92.2557L693.705 91.3172Z" fill="#3936BA" fill-opacity="0.956863"/>
<path d="M544.459 196.901L546.717 197.155C543.705 199.429 540.746 201.906 537.564 203.916C539.723 201.584 542.209 199.162 544.459 196.901Z" fill="#3936BA" fill-opacity="0.921569"/>
</svg>
